<?xml version="1.0" encoding="UTF-8"?>
<svg viewBox="0 0 595.28 841.89" xmlns="http://www.w3.org/2000/svg">
 <g stroke="#666">
  <path d="m233.56 623.84h188.97v-32.056l0.0274-2.4114 0.084-2.4097 0.1396-2.4088 0.1953-2.4042 0.2529-2.4008 0.3066-2.3954 0.3633-2.3882 0.418-2.381 0.4736-2.3722 0.5293-2.3622 0.5831-2.3515 0.6367-2.3398 0.6914-2.3266 0.7461-2.313 0.7998-2.298 0.8525-2.2817 0.9053-2.2639 0.958-2.2469 1.0088-2.2274 1.0616-2.2067 1.1123-2.1862 1.1641-2.1638 1.212-2.1405 1.2618-2.1164 1.3106-2.0914 1.3594-2.0654 1.4083-2.0386 1.4541-2.0108 1.4991-1.9823 1.628-2.1486 1.5792-2.1781 1.5294-2.2075 1.4805-2.2362 1.4288-2.2639 1.379-2.2899 1.3262-2.3149 1.2745-2.3399 1.2217-2.364 1.168-2.3855 1.1153-2.407 1.0586-2.4284 1.0069-2.4472 0.9492-2.4651 0.8955-2.483 0.8379-2.4991 0.7832-2.5152 0.7246-2.5286 0.6699-2.542 0.6104-2.5536 0.5557-2.5653 0.4961-2.5742 0.4385-2.584 0.3809-2.5912 0.3223-2.5975 0.2627-2.6037 0.2051-2.6081 0.1465-2.61 0.0889-2.6136 0.0293-2.6153v-149.17l-0.0283-1.2768-0.084-1.2732-0.1407-1.2688-0.1953-1.2643-0.251-1.2545-0.3057-1.2446-0.3623-1.233-0.4141-1.2178-0.4668-1.2026-0.5215-1.1821-0.5723-1.165-0.6221-1.1409-0.6729-1.1176-0.7197-1.0927-0.7696-1.064-0.8145-1.0354-0.8584-1.0032-0.9033-0.9728-0.9454-0.9379-0.9844-0.9022-1.0254-0.8655-1.0616-0.8262-1.0977-0.7868-1.1299-0.7466-1.1631-0.7028-1.1914-0.6607-1.2208-0.6151-1.2471-0.5705-1.2715-0.5231-1.293-0.4765-1.3125-0.4283-1.3301-0.3791-1.3467-0.3308-1.3585-0.2808-1.3711-0.2289-1.3809-0.1797-1.3858-0.1288-1.3916-0.0769-1.3936-0.0259-1.3926 0.0259-1.3917 0.0769-1.3858 0.1288-1.379 0.1797-1.3721 0.2289-1.3594 0.2808-1.3467 0.3308-1.3301 0.3791-1.3116 0.4283-1.294 0.4765-1.2715 0.5231-1.2462 0.5705-1.2198 0.6151-1.1934 0.6607-1.1621 0.7028-1.1309 0.7466-1.0967 0.7868-1.0626 0.8262-1.0235 0.8655-0.9864 0.9022-0.9454 0.9379-0.9024 0.9728-0.8594 1.0032-0.8155 1.0354-0.7666 1.064-0.7227 1.0927-0.6719 1.1176-0.6221 1.1409-0.5723 1.165-0.5196 1.1821-0.4678 1.2026-0.416 1.2178-0.3594 1.233-0.3076 1.2446-0.2509 1.2545-0.1944 1.2643-0.1406 1.2688-0.085 1.2732-0.0284 1.2768v-27.093l-0.0273-1.2795-0.085-1.2786-0.1406-1.2732-0.1963-1.2679-0.252-1.2607-0.3076-1.2482-0.3623-1.2375-0.416-1.2232-0.4697-1.2062-0.5206-1.1883-0.5752-1.1677-0.625-1.1445-0.6739-1.1221-0.7237-1.0953-0.7715-1.0694-0.8184-1.0381-0.8623-1.0086-0.9063-0.9755-0.9473-0.9415-0.9903-0.9057-1.0284-0.8673-1.0645-0.8306-1.1006-0.7895-1.1358-0.7484-1.1661-0.7063-1.1973-0.6625-1.2256-0.6179-1.252-0.5722-1.2755-0.5258-1.2969-0.4774-1.3174-0.4301-1.336-0.38-1.3506-0.3326-1.3643-0.2816-1.376-0.2298-1.3848-0.1806-1.3907-0.1288-1.3975-0.0778-1.3985-0.0242-1.3975 0.0242-1.3965 0.0778-1.3917 0.1288-1.3848 0.1806-1.376 0.2298-1.3643 0.2816-1.3516 0.3326-1.335 0.38-1.3174 0.4301-1.2969 0.4774-1.2764 0.5258-1.251 0.5722-1.2256 0.6179-1.1963 0.6625-1.166 0.7063-1.1358 0.7484-1.1016 0.7895-1.0655 0.8306-1.0274 0.8673-0.9893 0.9057-0.9483 0.9415-0.9062 0.9755-0.8624 1.0086-0.8174 1.0381-0.7715 1.0694-0.7236 1.0953-0.6739 1.1221-0.6251 1.1445-0.5752 1.1677-0.5225 1.1883-0.4678 1.2062-0.418 1.2232-0.3613 1.2375-0.3076 1.2482-0.251 1.2607-0.1963 1.2679-0.1406 1.2732-0.085 1.2786-0.0293 1.2795v-12.125l-0.0264-1.2795-0.0849-1.2786-0.1407-1.2741-0.1963-1.2687-0.252-1.2589-0.3086-1.2491-0.3623-1.2375-0.415-1.2223-0.4698-1.2062-0.5225-1.1883-0.5733-1.1677-0.625-1.1454-0.6758-1.1221-0.7237-1.0962-0.7715-1.0676-0.8174-1.039-0.8623-1.0086-0.9053-0.9755-0.9492-0.9415-0.9893-0.9049-1.0274-0.8682-1.0655-0.8298-1.1016-0.7904-1.1338-0.7484-1.168-0.7055-1.1973-0.6626-1.2246-0.6169-1.251-0.5731-1.2745-0.5249-1.2989-0.4784-1.3174-0.431-1.336-0.3809-1.3496-0.3308-1.3653-0.2816-1.3751-0.2307-1.3858-0.1806-1.3917-0.1288-1.3965-0.0769-1.3975-0.0259-1.3985 0.0259-1.3956 0.0769-1.3916 0.1288-1.3858 0.1806-1.3751 0.2307-1.3653 0.2816-1.3496 0.3308-1.336 0.3809-1.3174 0.431-1.2979 0.4784-1.2755 0.5249-1.251 0.5731-1.2246 0.6169-1.1973 0.6626-1.1671 0.7055-1.1348 0.7484-1.1006 0.7904-1.0655 0.8298-1.0284 0.8682-0.9893 0.9049-0.9483 0.9415-0.9063 0.9755-0.8623 1.0086-0.8174 1.039-0.7715 1.0676-0.7236 1.0962-0.6748 1.1221-0.6251 1.1454-0.5742 1.1677-0.5215 1.1883-0.4698 1.2062-0.416 1.2223-0.3623 1.2375-0.3076 1.2491-0.252 1.2589-0.1963 1.2687-0.1406 1.2741-0.085 1.2786-0.0273 1.2795v-98.526l-0.0284-1.275-0.084-1.2741-0.1406-1.2697-0.1953-1.2634-0.251-1.2545-0.3067-1.2446-0.3604-1.233-0.4151-1.2178-0.4678-1.2017-0.5206-1.1838-0.5713-1.1641-0.6231-1.1409-0.6729-1.1176-0.7207-1.0917-0.7686-1.0649-0.8145-1.0354-0.8594-1.0041-0.9024-0.9719-0.9454-0.9379-0.9854-0.9022-1.0245-0.8655-1.0616-0.8262-1.0967-0.7868-1.1309-0.7466-1.1631-0.7028-1.1924-0.6608-1.2207-0.6152-1.2471-0.5704-1.2705-0.5231-1.293-0.4766-1.3125-0.4283-1.3301-0.38-1.3467-0.3299-1.3594-0.2808-1.3712-0.2298-1.379-0.1788-1.3868-0.1288-1.3916-0.0769-1.3926-0.0259-1.3936 0.0259-1.3916 0.0769-1.3858 0.1288-1.3799 0.1788-1.3711 0.2298-1.3594 0.2808-1.3467 0.3299-1.3301 0.38-1.3125 0.4283-1.293 0.4766-1.2706 0.5231-1.2471 0.5704-1.2207 0.6152-1.1924 0.6608-1.1631 0.7028-1.1309 0.7466-1.0967 0.7868-1.0616 0.8262-1.0245 0.8655-0.9854 0.9022-0.9444 0.9379-0.9034 0.9719-0.8594 1.0041-0.8145 1.0354-0.7686 1.0649-0.7207 1.0917-0.6729 1.1176-0.6221 1.1409-0.5723 1.1641-0.5205 1.1838-0.4678 1.2017-0.4151 1.2178-0.3604 1.233-0.3057 1.2446-0.252 1.2545-0.1953 1.2634-0.1406 1.2697-0.084 1.2741-0.0283 1.275v188.97l-0.8125-1.6121-0.8643-1.5906-0.916-1.5656-0.9659-1.5406-1.0157-1.5137-1.0645-1.4842-1.1123-1.4565-1.1582-1.4253-1.2041-1.3922-1.2491-1.36-1.292-1.3242-1.335-1.2902-1.3751-1.2517-1.4161-1.2143-1.4541-1.1758-1.4922-1.1355-1.5284-1.0953-1.5625-1.0524-1.5967-1.0095-1.628-0.9648-1.6583-0.9227-1.6885-0.8753-1.7149-0.8298-1.7423-0.7823-1.7657-0.735-1.7901-0.6867-1.8106-0.6384-1.8301-0.5883-1.8487-0.5383-1.8663-0.4873-1.88-0.4372-1.8936-0.3863-1.9063-0.3344-1.9151-0.2816-1.9239-0.2307-1.9297-0.1779-1.9356-0.1243-1.9385-0.0733-1.9405-0.0197-1.9395 0.0313-1.9376 0.0858-1.9347 0.1377-1.9288 0.1905-1.376 0.1797-1.3663 0.2307-1.3555 0.2817-1.3418 0.3281-1.3262 0.3791-1.3086 0.4265-1.2901 0.4747-1.2666 0.5222-1.2442 0.5669-1.2178 0.6125-1.1905 0.6563-1.1602 0.6992-1.1289 0.7421-1.0957 0.7824-1.0606 0.8217-1.0244 0.8602-0.9854 0.8968-0.9453 0.9317-0.9043 0.9674-0.8604 0.9979-0.8174 1.0291-0.7705 1.0578-0.7246 1.0854-0.6768 1.1114-0.627 1.1355-0.5772 1.157-0.5264 1.1775-0.4736 1.1955-0.4219 1.2133-0.3682 1.2259-0.3145 1.2393-0.2598 1.2491-0.2061 1.2589-0.1494 1.2643-0.0947 1.2688-0.0391 1.2732 0.0156 1.2706 0.0723 1.2705 0.127 1.267 0.1836 1.2616 0.2373 1.2527 0.292 1.2437 0.3467 1.233 0.3994 1.2178 0.4531 1.2026 0.5049 1.1865 0.5557 1.1642 0.6074 1.1444 0.6563 1.1222 0.7041 1.0962 0.752 1.0694 0.7989 1.0417 0.8428 1.0121 0.8867 0.9791 0.9288 0.9451 0.9688 0.9129 1.0088 0.8745 1.0459 0.8378 1.0811 0.7985 1.1162 0.7582 1.1475 0.7171 1.1778 0.6742 1.2071 0.6312 1.2334 0.5856 1.2579 0.5401 1.2803 0.4944 1.3018 0.4462 1.4717 0.5043 1.4502 0.5517 1.4268 0.6026 1.4014 0.6509 1.3741 0.6974 1.3448 0.7448 1.3126 0.7913 1.2803 0.8333 1.2452 0.878 1.2081 0.9183 1.1709 0.9603 1.1299 1.0005 1.0889 1.0363 1.045 1.0738 1.001 1.1088 0.9551 1.1436 0.9082 1.1731 0.8594 1.2053 0.8096 1.2312 0.7588 1.2598 0.7071 1.2857 0.6543 1.3072 0.6006 1.3296 0.5459 1.3492 0.4903 1.3671 0.4336 1.3814 0.3779 1.3975 0.3203 1.4074 0.2627 1.419 0.2051 1.4261 0.1465 1.4333 0.0879 1.4359 0.0293 1.4377v12.58l0.0283 2.8093 0.0859 2.8084 0.1436 2.8076 0.2002 2.8039 0.2568 2.7995 0.3145 2.7941 0.3711 2.7897 0.4287 2.7825 0.4844 2.7745 0.541 2.7646 0.5977 2.7557 0.6534 2.7459 0.709 2.7333 0.7657 2.7217 0.8194 2.7065 0.876 2.6931 0.9297 2.6779 0.9844 2.6609 1.0381 2.6439 1.0918 2.626 1.1456 2.6055 1.1983 2.5867 1.251 2.5661 1.3028 2.5438 1.3546 2.5213 1.4063 2.4973 1.4561 2.4731 1.5059 2.448 1.5567 2.4213 1.6045 2.3945 1.6544 2.3667 1.7012 2.3381 1.7491 2.3095 1.796 2.2783 1.8419 2.2469 1.8868 2.2156 1.9327 2.1826 1.9766 2.1495 2.0196 2.1155 2.0626 2.0807 2.1046 2.0448 2.1456 2.0099 2.1866 1.9707 2.2257 1.9332 2.2657 1.8954 2.3038 1.8571 2.3409 1.817 2.377 1.7766 2.4132 1.7355 1.4454 1.0532 1.4092 1.0944 1.3692 1.1348 1.3311 1.1739 1.2891 1.2115 1.2471 1.2473 1.2032 1.2839 1.1582 1.3171 1.1133 1.351 1.0655 1.3814 1.0166 1.4119 0.9688 1.4404 0.918 1.4673 0.8672 1.494 0.8155 1.5173 0.7627 1.5405 0.71 1.562 0.6553 1.5817 0.6006 1.5996 0.5449 1.6157 0.4893 1.6317 0.4326 1.6443 0.376 1.656 0.3184 1.6658 0.2617 1.6746 0.2031 1.681 0.1455 1.6863 0.0869 1.6899 0.0293 1.6908v32.056z" fill="#fff"/>
  <path d="m445.34 526.2l1.628-2.1486 1.5792-2.178 1.5294-2.2076 1.4805-2.2361 1.4288-2.264 1.3789-2.2899 1.3262-2.3148 1.2744-2.3399 1.2217-2.3641 1.168-2.3855 1.1153-2.407 1.0586-2.4284 1.0069-2.4472 0.9492-2.4651 0.8956-2.483 0.8379-2.4991 0.7832-2.5151 0.7246-2.5286 0.67-2.542 0.6104-2.5535 0.5557-2.5653 0.4961-2.5742 0.4385-2.584 0.3809-2.5912 0.3223-2.5974 0.2627-2.6037 0.2051-2.6082 0.1465-2.6108 0.0889-2.6135 0.0293-2.6144m-277.33-286.92v227.69m69.209-227.69v197.48m208.13-59.735v149.17m-69.209-176.27v86.827m-69.46-98.952v98.952m-185.63 66.804v-12.58m86.919 174.36v32.056m188.97-32.056v32.056m-159.72-458.12l-0.0283-1.275-0.084-1.2741-0.1406-1.2697-0.1953-1.2634-0.251-1.2545-0.3066-1.2446-0.3604-1.233-0.415-1.2178-0.4678-1.2017-0.5205-1.1838-0.5713-1.1641-0.6231-1.1409-0.6729-1.1176-0.7207-1.0917-0.7686-1.0649-0.8145-1.0354-0.8594-1.0041-0.9024-0.9719-0.9453-0.9379-0.9854-0.9022-1.0245-0.8655-1.0616-0.8262-1.0967-0.7868-1.1309-0.7466-1.1631-0.7028-1.1924-0.6607-1.2207-0.6152-1.2471-0.5704-1.2705-0.5231-1.293-0.4765-1.3125-0.4283-1.3301-0.38-1.3467-0.3299-1.3594-0.2807-1.3711-0.2298-1.379-0.1788-1.3868-0.1287-1.3916-0.0769-1.3926-0.0259-1.3936 0.0259-1.3916 0.0769-1.3858 0.1287-1.3799 0.1788-1.3711 0.2298-1.3594 0.2807-1.3467 0.3299-1.3301 0.38-1.3125 0.4283-1.293 0.4765-1.2705 0.5231-1.2471 0.5704-1.2207 0.6152-1.1924 0.6607-1.1631 0.7028-1.1309 0.7466-1.0967 0.7868-1.0616 0.8262-1.0244 0.8655-0.9854 0.9022-0.9444 0.9379-0.9034 0.9719-0.8594 1.0041-0.8145 1.0354-0.7686 1.0649-0.7207 1.0917-0.6729 1.1176-0.6221 1.1409-0.5723 1.1641-0.5205 1.1838-0.4678 1.2017-0.4151 1.2178-0.3604 1.233-0.3057 1.2446-0.252 1.2545-0.1953 1.2634-0.1406 1.2697-0.084 1.2741-0.0284 1.275m17.122 383.56l-2.4132-1.7355-2.377-1.7767-2.3409-1.8168-2.3038-1.8572-2.2657-1.8956-2.2257-1.933-2.1866-1.9716-2.1456-2.009-2.1046-2.0449-2.0626-2.0806-2.0196-2.1156-1.9766-2.1494-1.9327-2.1826-1.8868-2.2157-1.8418-2.2469-1.796-2.2781-1.7491-2.3095-1.7012-2.3381-1.6543-2.3667-1.6046-2.3945-1.5567-2.4213-1.5059-2.4482-1.4561-2.4731-1.4063-2.4973-1.3546-2.5214-1.3028-2.5438-1.251-2.5661-1.1983-2.5867-1.1456-2.6064-1.0918-2.6252-1.0381-2.6439-0.9844-2.6618-0.9297-2.677-0.876-2.6931-0.8194-2.7074-0.7656-2.7217-0.709-2.7334-0.6534-2.7449-0.5977-2.7558-0.541-2.7655-0.4844-2.7744-0.4287-2.7825-0.3711-2.7888-0.3145-2.795-0.2569-2.7995-0.2002-2.804-0.1436-2.8066-0.0859-2.8085-0.0283-2.8093m-20.799-110.47l-1.3761 0.1797-1.3662 0.2307-1.3555 0.2808-1.3419 0.329-1.3262 0.3791-1.3087 0.4265-1.2901 0.4748-1.2666 0.5213-1.2442 0.5677-1.2178 0.6125-1.1905 0.6563-1.1602 0.6992-1.1289 0.7421-1.0957 0.7824-1.0606 0.8217-1.0245 0.8601-0.9854 0.8968-0.9453 0.9317-0.9043 0.9666-0.8604 0.9978-0.8174 1.0292-0.7705 1.0586-0.7246 1.0855-0.6768 1.1114-0.627 1.1355-0.5772 1.157-0.5264 1.1776-0.4736 1.1955-0.4219 1.2124-0.3682 1.2267-0.3145 1.2393-0.2598 1.2491-0.2061 1.2589-0.1494 1.2643-0.0947 1.2688-0.0391 1.2723 0.0156 1.2714 0.0723 1.2705 0.1269 1.267 0.1836 1.2616 0.2373 1.2527 0.292 1.2437 0.3467 1.2321 0.3994 1.2187 0.4532 1.2026 0.5049 1.1856 0.5557 1.1651 0.6075 1.1445 0.6563 1.1212 0.7041 1.0971 0.752 1.0694 0.7988 1.0416 0.8428 1.0113 0.8868 0.9791 0.9287 0.946 0.9688 0.912 1.0088 0.8753 1.0459 0.8378 1.0811 0.7985 1.1162 0.7582 1.1475 0.7171 1.1778 0.6742 1.2071 0.6313 1.2334 0.5857 1.2579 0.54 1.2803 0.4944 1.3018 0.4462m213.73-116.83l-0.0263-1.2804-0.085-1.2777-0.1406-1.2741-0.1963-1.2688-0.252-1.2589-0.3086-1.2491-0.3623-1.2375-0.415-1.2223-0.4698-1.2062-0.5225-1.1883-0.5732-1.1677-0.6251-1.1453-0.6758-1.1221-0.7237-1.0962-0.7715-1.0676-0.8174-1.039-0.8623-1.0086-0.9053-0.9755-0.9493-0.9415-0.9893-0.9048-1.0274-0.8682-1.0655-0.8298-1.1016-0.7904-1.1338-0.7484-1.168-0.7063-1.1973-0.6617-1.2247-0.6178-1.251-0.5722-1.2745-0.5257-1.2989-0.4783-1.3174-0.4301-1.336-0.3809-1.3497-0.3308-1.3653-0.2816-1.375-0.2307-1.3858-0.1806-1.3916-0.1288-1.3965-0.0769-1.3975-0.0259-1.3985 0.0259-1.3956 0.0769-1.3917 0.1288-1.3858 0.1806-1.375 0.2307-1.3653 0.2816-1.3497 0.3308-1.336 0.3809-1.3174 0.4301-1.2979 0.4783-1.2754 0.5257-1.251 0.5722-1.2247 0.6178-1.1973 0.6617-1.1671 0.7063-1.1348 0.7484-1.1006 0.7904-1.0655 0.8298-1.0284 0.8682-0.9893 0.9048-0.9483 0.9415-0.9063 0.9755-0.8623 1.0086-0.8174 1.039-0.7715 1.0676-0.7237 1.0962-0.6748 1.1221-0.625 1.1453-0.5742 1.1677-0.5215 1.1883-0.4698 1.2062-0.416 1.2223-0.3623 1.2375-0.3076 1.2491-0.252 1.2589-0.1963 1.2688-0.1407 1.2741-0.0849 1.2777-0.0274 1.2804m69.458 12.125l0.0293-1.2795 0.085-1.2786 0.1407-1.2741 0.1963-1.2679 0.251-1.2598 0.3076-1.2491 0.3613-1.2365 0.418-1.2232 0.4678-1.2062 0.5225-1.1883 0.5752-1.1677 0.625-1.1453 0.6739-1.1212 0.7237-1.0962 0.7715-1.0685 0.8174-1.0389 0.8623-1.0077 0.9063-0.9755 0.9483-0.9415 0.9893-0.9057 1.0274-0.8682 1.0655-0.8297 1.1016-0.7895 1.1358-0.7484 1.1661-0.7063 1.1963-0.6625 1.2256-0.6178 1.251-0.5723 1.2764-0.5257 1.2969-0.4774 1.3174-0.4301 1.335-0.3809 1.3516-0.3317 1.3643-0.2817 1.376-0.2307 1.3848-0.1797 1.3917-0.1287 1.3965-0.0778 1.3975-0.025 1.3985 0.025 1.3975 0.0778 1.3907 0.1287 1.3849 0.1797 1.376 0.2307 1.3643 0.2817 1.3506 0.3317 1.336 0.3809 1.3174 0.4301 1.2969 0.4774 1.2754 0.5257 1.252 0.5723 1.2256 0.6178 1.1973 0.6625 1.166 0.7063 1.1358 0.7484 1.1006 0.7895 1.0645 0.8297 1.0284 0.8682 0.9903 0.9057 0.9473 0.9415 0.9063 0.9755 0.8623 1.0077 0.8184 1.0389 0.7715 1.0685 0.7236 1.0962 0.6739 1.1212 0.625 1.1453 0.5752 1.1677 0.5205 1.1883 0.4697 1.2062 0.416 1.2232 0.3623 1.2365 0.3076 1.2491 0.252 1.2598 0.1963 1.2679 0.1406 1.2741 0.085 1.2786 0.0273 1.2795m-255.09 141.05l-0.0293-1.4387-0.0879-1.4359-0.1465-1.4324-0.2051-1.4261-0.2627-1.4189-0.3203-1.4082-0.3779-1.3966-0.4336-1.3823-0.4903-1.3662-0.5459-1.3492-0.6006-1.3296-0.6543-1.3081-0.7071-1.2849-0.7588-1.2598-0.8096-1.2321-0.8594-1.2044-0.9082-1.1739-0.9551-1.1427-1.001-1.1087-1.045-1.0738-1.0889-1.0372-1.1299-0.9996-1.171-0.9603-1.208-0.9192-1.2451-0.8771-1.2803-0.8343-1.3126-0.7904-1.3448-0.7448-1.3741-0.6974-1.4014-0.6509-1.4268-0.6026-1.4502-0.5526-1.4717-0.5034m7.305-61.55l1.9288-0.1904 1.9346-0.1377 1.9376-0.0858 1.9395-0.0322 1.9405 0.0206 1.9386 0.0724 1.9356 0.1252 1.9298 0.1779 1.9239 0.2307 1.9151 0.2817 1.9063 0.3344 1.8936 0.3863 1.8799 0.4373 1.8663 0.4873 1.8487 0.5383 1.8301 0.5883 1.8107 0.6384 1.7901 0.6867 1.7657 0.735 1.7423 0.7823 1.7149 0.8297 1.6885 0.8754 1.6583 0.9218 1.628 0.9656 1.5967 1.0095 1.5626 1.0524 1.5284 1.0953 1.4922 1.1356 1.4541 1.1749 1.4161 1.2151 1.3751 1.2518 1.335 1.2893 1.2921 1.3251 1.249 1.36 1.2041 1.3922 1.1583 1.4252 1.1123 1.4556 1.0645 1.4851 1.0157 1.5137 0.9658 1.5397 0.9161 1.5665 0.8643 1.5898 0.8125 1.613m39.956 237.09l-0.0293-1.6907-0.0869-1.6899-0.1455-1.6863-0.2031-1.681-0.2617-1.6746-0.3184-1.6658-0.376-1.6559-0.4326-1.6443-0.4893-1.6317-0.545-1.6157-0.6006-1.5997-0.6553-1.5816-0.71-1.562-0.7627-1.5406-0.8155-1.5173-0.8672-1.4941-0.918-1.4672-0.9688-1.4405-1.0166-1.4118-1.0655-1.3814-1.1133-1.351-1.1582-1.317-1.2032-1.2839-1.2471-1.2473-1.2891-1.2115-1.3311-1.174-1.3692-1.1347-1.4092-1.0944-1.4454-1.0532m211.8 42.499l0.0273-2.4114 0.084-2.4097 0.1397-2.4088 0.1953-2.4043 0.253-2.4007 0.3067-2.3954 0.3633-2.3882 0.4179-2.381 0.4736-2.3721 0.5293-2.3623 0.583-2.3515 0.6368-2.3399 0.6914-2.3265 0.7461-2.3131 0.7998-2.298 0.8526-2.2817 0.9053-2.2639 0.9581-2.247 1.0088-2.2273 1.0615-2.2067 1.1123-2.1861 1.1642-2.1638 1.2119-2.1406 1.2618-2.1163 1.3106-2.0914 1.3594-2.0654 1.4082-2.0386 1.4542-2.0108 1.4991-1.9823m-251.74-132.79l-0.0283 2.162-0.085 2.1611-0.1416 2.1584-0.1983 2.1557-0.2539 2.1494-0.3115 2.1441-0.3672 2.136-0.4229 2.1271-0.4785 2.1182-0.5342 2.1066-0.5889 2.094-0.6436 2.0806-0.6983 2.0663-0.752 2.0494-0.8057 2.0332-0.8594 2.0145-0.8721 2.0439-0.8194 2.0609-0.7676 2.0789-0.7139 2.094-0.6612 2.1092-0.6065 2.1227-0.5528 2.1351-0.4981 2.1459-0.4443 2.1557-0.3887 2.1656-0.333 2.1727-0.2783 2.179-0.2227 2.1844m222.45-151.35l0.0283-1.2759 0.085-1.2732 0.1407-1.2697 0.1943-1.2634 0.251-1.2545 0.3077-1.2446 0.3594-1.233 0.416-1.2178 0.4678-1.2026 0.5195-1.1829 0.5723-1.1642 0.6221-1.1409 0.6719-1.1176 0.7227-1.0926 0.7666-1.064 0.8155-1.0354 0.8594-1.0041 0.9023-0.9719 0.9454-0.9379 0.9864-0.9022 1.0235-0.8655 1.0625-0.8262 1.0967-0.7868 1.1309-0.7466 1.1621-0.7028 1.1935-0.6608 1.2197-0.6152 1.2461-0.5704 1.2715-0.5231 1.294-0.4765 1.3116-0.4283 1.3301-0.3799 1.3467-0.33 1.3594-0.2808 1.3721-0.2298 1.3789-0.1788 1.3858-0.1287 1.3917-0.0769 1.3926-0.0259 1.3936 0.0259 1.3917 0.0769 1.3858 0.1287 1.3809 0.1788 1.3712 0.2298 1.3585 0.2808 1.3467 0.33 1.3301 0.3799 1.3126 0.4283 1.293 0.4765 1.2715 0.5231 1.2471 0.5704 1.2207 0.6152 1.1915 0.6608 1.1631 0.7028 1.1299 0.7466 1.0977 0.7868 1.0616 0.8262 1.0254 0.8655 0.9844 0.9022 0.9453 0.9379 0.9033 0.9719 0.8585 1.0041 0.8145 1.0354 0.7696 1.064 0.7198 1.0926 0.6729 1.1176 0.6221 1.1409 0.5723 1.1642 0.5215 1.1829 0.4669 1.2026 0.414 1.2178 0.3623 1.233 0.3057 1.2446 0.251 1.2545 0.1953 1.2634 0.1406 1.2697 0.084 1.2732 0.0284 1.2759" fill="none" stroke-linecap="round" stroke-linejoin="round" stroke-width="9"/>
 </g>
</svg>
